<?xml version="1.0" encoding="utf-8"?>
<!-- Generator: Adobe Illustrator 28.3.0, SVG Export Plug-In . SVG Version: 6.00 Build 0)  -->
<svg version="1.1" id="컬러" xmlns="http://www.w3.org/2000/svg" xmlns:xlink="http://www.w3.org/1999/xlink" x="0px" y="0px"
	 viewBox="0 0 640 640" style="enable-background:new 0 0 640 640;" xml:space="preserve">
<g>
	<g>
		<g>
			<path d="M198.97,277.06c2.04-1.23,4.38-1.84,7-1.84c2.45,0,4.61,0.54,6.49,1.61c1.87,1.08,3.32,2.69,4.36,4.84h10.39
				c-1.51-4.56-4.15-8.13-7.94-10.71c-3.79-2.58-8.2-3.87-13.23-3.87c-4.3,0-8.19,0.98-11.65,2.94c-3.46,1.96-6.2,4.69-8.2,8.2
				c-2,3.51-3,7.48-3,11.91c0,4.43,1,8.39,3,11.87c2,3.48,4.73,6.21,8.2,8.16c3.46,1.96,7.34,2.94,11.65,2.94
				c5.08,0,9.5-1.28,13.26-3.84c3.76-2.56,6.4-6.14,7.9-10.74h-10.39c-1.03,2.15-2.48,3.77-4.36,4.87c-1.87,1.1-4.03,1.65-6.49,1.65
				c-2.62,0-4.96-0.61-7-1.84c-2.04-1.23-3.64-2.97-4.78-5.23c-1.14-2.26-1.71-4.87-1.71-7.84c0-3.01,0.57-5.64,1.71-7.87
				C195.34,280.02,196.93,278.28,198.97,277.06z"/>
			<path d="M259.52,278.67c-2.8-1.53-5.92-2.29-9.36-2.29c-3.44,0-6.56,0.76-9.36,2.29c-2.8,1.53-5,3.69-6.61,6.49
				c-1.61,2.8-2.42,6.02-2.42,9.68c0,3.66,0.78,6.88,2.36,9.68c1.57,2.8,3.73,4.96,6.49,6.49c2.75,1.53,5.85,2.29,9.29,2.29
				c3.48,0,6.64-0.76,9.45-2.29c2.82-1.53,5.05-3.69,6.71-6.49c1.66-2.8,2.48-6.02,2.48-9.68c0-3.66-0.81-6.88-2.42-9.68
				C264.52,282.36,262.31,280.2,259.52,278.67z M257.97,300.64c-0.86,1.59-2.01,2.79-3.45,3.58c-1.44,0.8-2.98,1.19-4.61,1.19
				c-2.58,0-4.72-0.91-6.42-2.74c-1.7-1.83-2.55-4.44-2.55-7.84c0-3.4,0.87-6.01,2.61-7.84c1.74-1.83,3.9-2.74,6.49-2.74
				c2.58,0,4.76,0.91,6.55,2.74c1.78,1.83,2.68,4.44,2.68,7.84C259.26,297.12,258.83,299.05,257.97,300.64z"/>
			<path d="M292.93,276.44c-2.24,0-4.29,0.44-6.16,1.32c-1.87,0.88-3.41,2.1-4.61,3.65v-4.45h-9.03v35.75h9.03v-19.75
				c0-2.84,0.72-5.02,2.16-6.55c1.44-1.53,3.41-2.29,5.9-2.29c2.45,0,4.39,0.76,5.81,2.29c1.42,1.53,2.13,3.71,2.13,6.55v19.75h9.03
				v-20.97c0-4.82-1.31-8.57-3.94-11.26C300.63,277.79,297.18,276.44,292.93,276.44z"/>
			<path d="M331.56,276.44c-2.24,0-4.29,0.44-6.16,1.32c-1.87,0.88-3.41,2.1-4.61,3.65v-4.45h-9.03v35.75h9.03v-19.75
				c0-2.84,0.72-5.02,2.16-6.55c1.44-1.53,3.41-2.29,5.9-2.29c2.45,0,4.39,0.76,5.81,2.29c1.42,1.53,2.13,3.71,2.13,6.55v19.75h9.03
				v-20.97c0-4.82-1.31-8.57-3.94-11.26C339.26,277.79,335.82,276.44,331.56,276.44z"/>
			<path d="M377.46,278.57c-2.69-1.46-5.73-2.19-9.13-2.19c-3.53,0-6.65,0.75-9.36,2.26c-2.71,1.51-4.82,3.66-6.32,6.45
				c-1.51,2.8-2.26,6.05-2.26,9.74c0,3.66,0.76,6.88,2.29,9.68c1.53,2.8,3.66,4.96,6.39,6.49c2.73,1.53,5.82,2.29,9.26,2.29
				c4.26,0,7.85-1.11,10.78-3.32c2.92-2.22,4.9-5.04,5.94-8.49h-9.74c-1.42,2.88-3.81,4.32-7.16,4.32c-2.32,0-4.28-0.73-5.87-2.19
				c-1.59-1.46-2.5-3.48-2.71-6.07h26.13c0.17-1.03,0.26-2.19,0.26-3.48c0-3.48-0.74-6.57-2.23-9.26
				C382.23,282.11,380.15,280.04,377.46,278.57z M359.61,291.48c0.34-2.41,1.28-4.29,2.81-5.65c1.53-1.35,3.41-2.03,5.65-2.03
				c2.37,0,4.37,0.7,6,2.1c1.63,1.4,2.47,3.26,2.52,5.58H359.61z"/>
			<path d="M408.14,284.06c1.81,0,3.32,0.44,4.55,1.32c1.23,0.88,2.1,2.1,2.61,3.65h9.74c-0.99-4-2.94-7.11-5.84-9.32
				c-2.9-2.22-6.57-3.32-11-3.32c-3.44,0-6.5,0.76-9.16,2.29c-2.67,1.53-4.75,3.68-6.26,6.45c-1.51,2.78-2.26,6.01-2.26,9.71
				c0,3.7,0.75,6.94,2.26,9.71c1.51,2.78,3.59,4.93,6.26,6.45c2.67,1.53,5.72,2.29,9.16,2.29c4.39,0,8.04-1.14,10.97-3.42
				c2.92-2.28,4.88-5.36,5.87-9.23h-9.74c-1.12,3.27-3.51,4.9-7.16,4.9c-2.58,0-4.63-0.94-6.13-2.81c-1.51-1.87-2.26-4.51-2.26-7.9
				c0-3.44,0.75-6.1,2.26-7.97C403.52,284.99,405.56,284.06,408.14,284.06z"/>
			<path d="M438.71,267.6h-9.1v34.01c0,7.4,3.81,11.1,11.42,11.1h5.68v-7.61h-4.19c-1.38,0-2.36-0.27-2.94-0.81
				c-0.58-0.54-0.87-1.41-0.87-2.61v-16.71h8v-8h-8V267.6z"/>
		</g>
		<g>
			<polygon points="236.77,321.19 228.75,356.02 220.09,321.19 210.01,321.19 200.84,356.22 192.89,321.19 183.19,321.19 
				195.34,366.3 205.94,366.3 214.8,334.18 223.26,366.3 233.92,366.3 246.53,321.19 			"/>
			<polygon points="306.15,358.01 297.12,330.58 287.44,330.58 300.6,366.33 311.57,366.33 324.8,330.58 315.19,330.58 			"/>
			<path d="M361.84,347.68c0-3.48-0.74-6.57-2.23-9.26c-1.48-2.69-3.57-4.76-6.26-6.23c-2.69-1.46-5.73-2.19-9.13-2.19
				c-3.53,0-6.65,0.75-9.36,2.26c-2.71,1.51-4.82,3.66-6.32,6.45c-1.51,2.8-2.26,6.05-2.26,9.74c0,3.66,0.76,6.88,2.29,9.68
				c1.53,2.8,3.66,4.96,6.39,6.49c2.73,1.53,5.82,2.29,9.26,2.29c4.26,0,7.85-1.11,10.78-3.32c2.92-2.22,4.9-5.04,5.94-8.49h-9.74
				c-1.42,2.88-3.81,4.32-7.16,4.32c-2.32,0-4.28-0.73-5.87-2.19c-1.59-1.46-2.5-3.48-2.71-6.07h26.14
				C361.76,350.14,361.84,348.97,361.84,347.68z M335.52,345.1c0.34-2.41,1.28-4.29,2.81-5.65c1.53-1.35,3.41-2.03,5.65-2.03
				c2.37,0,4.37,0.7,6,2.1c1.63,1.4,2.47,3.26,2.52,5.58H335.52z"/>
			<path d="M273.63,335.68c-1.2-1.63-2.81-2.99-4.81-4.07c-2-1.07-4.33-1.61-7-1.61c-3.06,0-5.82,0.75-8.29,2.26
				c-2.47,1.51-4.43,3.66-5.87,6.45c-1.44,2.8-2.16,6-2.16,9.62c0,3.66,0.72,6.9,2.16,9.71c1.44,2.82,3.4,5,5.87,6.55
				c2.47,1.55,5.22,2.32,8.23,2.32c2.67,0,5.02-0.55,7.07-1.65c2.04-1.1,3.65-2.48,4.81-4.16v5.23h9.1v-35.75h-9.1V335.68z
				 M272.34,354.1c-0.86,1.57-2.02,2.78-3.48,3.61c-1.46,0.84-3.03,1.26-4.71,1.26c-1.64,0-3.17-0.43-4.61-1.29
				c-1.44-0.86-2.6-2.1-3.48-3.71c-0.88-1.61-1.32-3.49-1.32-5.65c0-2.15,0.44-4.01,1.32-5.58c0.88-1.57,2.03-2.76,3.45-3.58
				c1.42-0.82,2.97-1.23,4.65-1.23c1.68,0,3.25,0.42,4.71,1.26c1.46,0.84,2.62,2.04,3.48,3.61c0.86,1.57,1.29,3.45,1.29,5.65
				C273.63,350.65,273.2,352.53,272.34,354.1z"/>
		</g>
	</g>
</g>
</svg>
