<svg width="77" height="17" viewBox="0 0 77 17" fill="none" xmlns="http://www.w3.org/2000/svg">
<g id="logo" clipPath="url(#clip0_818_105)">
<path id="Vector" d="M0.477687 0H2.72867C2.9923 0 3.20636 0.209224 3.20636 0.4669V2.66926C3.20636 2.92693 2.9923 3.13616 2.72867 3.13616H0.477687C0.214058 3.13616 0 2.92693 0 2.66926V0.4669C0 0.209224 0.214058 0 0.477687 0Z" fill="#060001"/>
<path id="Vector_2" d="M6.75981 3.13836C6.54575 3.34758 6.25508 3.46651 5.95315 3.46651H4.02212C3.75849 3.46651 3.54443 3.67573 3.54443 3.93341V6.13577C3.54443 6.39344 3.75849 6.60267 4.02212 6.60267H6.27311C6.53674 6.60267 6.75079 6.39344 6.75079 6.13577V4.24835C6.75079 3.95323 6.87472 3.66693 7.08878 3.4577C7.30284 3.24848 7.589 3.13616 7.88868 3.13616H9.81971C10.0833 3.13616 10.2974 2.92693 10.2974 2.66926V0.4669C10.2974 0.209224 10.0833 0 9.81971 0H7.56872C7.30509 0 7.09103 0.209224 7.09103 0.4669V2.35432C7.09103 2.64944 6.97387 2.93134 6.75981 3.13836Z" fill="#060001"/>
<path id="Vector_3" d="M3.21537 13.5357C3.00582 13.7449 2.71741 13.866 2.41773 13.866H0.477687C0.214058 13.866 0 14.0753 0 14.3329V16.5331C0 16.7908 0.214058 17 0.477687 17H2.72867C2.9923 17 3.20636 16.7908 3.20636 16.5331V14.6611C3.20636 14.5444 3.21763 14.4254 3.25593 14.3153C3.41817 13.8286 3.86431 13.5357 4.34425 13.5357H6.27528C6.5389 13.5357 6.75296 13.3265 6.75296 13.0688V11.1968C6.75296 11.0801 6.76423 10.9611 6.80253 10.8488C6.96477 10.3621 7.41316 10.0692 7.89085 10.0692H9.82188C10.0855 10.0692 10.2996 9.85996 10.2996 9.60228C10.2996 9.60228 10.2973 8.97461 10.2928 8.37116L10.2996 7.71486C10.2996 7.41974 10.4167 7.14004 10.6308 6.93082C10.8448 6.7216 11.1355 6.60267 11.4374 6.60267H13.3662C13.6299 6.60267 13.8439 6.39345 13.8439 6.13577V4.25055C13.8439 3.95543 13.9633 3.67353 14.1774 3.46431C14.3914 3.25508 14.6799 3.13836 14.9818 3.13836H16.9106C17.1742 3.13836 17.3883 2.92914 17.3883 2.67146V0.4669C17.3883 0.209224 17.1742 0 16.9106 0H14.6596C14.396 0 14.1819 0.209224 14.1819 0.4669V2.32349C14.1819 2.44241 14.1706 2.56354 14.1323 2.67586C13.9701 3.1714 13.524 3.46431 13.044 3.46431H11.113C10.8494 3.46431 10.6353 3.67353 10.6353 3.93121V5.81863C10.6353 6.11375 10.5181 6.39344 10.3041 6.60267C10.09 6.81189 9.79934 6.93082 9.49741 6.93082H7.56638C7.30275 6.93082 7.0887 7.14004 7.0887 7.39772V9.28514C7.0887 9.58026 6.98054 9.85335 6.76648 10.0626C6.55242 10.2718 6.25274 10.3995 5.95081 10.3995H4.02203C3.75841 10.3995 3.54435 10.6088 3.54435 10.8664V12.7517C3.54435 13.0424 3.42267 13.3265 3.21537 13.5335V13.5357Z" fill="#060001"/>
<path id="Vector_4" d="M22.352 0H19.7969V17H22.352V0Z" fill="#060001" stroke="black"/>
<path id="Vector_5" d="M39.9634 14.7294H38.6407L32.5727 0.592434C32.4195 0.23345 32.059 0 31.6602 0H26.6354L26.6084 17H29.1884V2.27063H30.484L36.6015 16.4098C36.757 16.7688 37.1153 17 37.5141 17H42.4892L42.514 0H39.9588V14.7294H39.9634Z" fill="#060001" stroke="black"/>
<path id="Vector_6" d="M54.3887 14.7294H51.5293L47.1693 0H44.5105L49.5623 16.3129C49.6884 16.7203 50.0738 17 50.5086 17H55.4072C55.8443 17 56.2274 16.7203 56.3535 16.3129L61.4076 0H58.7487L54.3865 14.7294H54.3887Z" fill="#060001" stroke="black"/>
<path id="Vector_7" d="M65.9568 14.7294V0H63.4016V14.5796C63.4016 14.932 63.53 15.2359 63.7892 15.487L64.9496 16.6212C65.2335 16.8745 65.5174 17 65.8779 17H76.9999V14.7294H65.9545H65.9568Z" fill="#060001" stroke="black"/>
</g>
<defs>
<clipPath id="clip0_818_105">
<rect width="77" height="17" fill="white"/>
</clipPath>
</defs>
</svg>
